<?xml version="1.0" encoding="utf-8"?>
<!-- Generator: Adobe Illustrator 18.0.0, SVG Export Plug-In . SVG Version: 6.00 Build 0)  -->
<!DOCTYPE svg PUBLIC "-//W3C//DTD SVG 1.1//EN" "http://www.w3.org/Graphics/SVG/1.1/DTD/svg11.dtd">
<svg version="1.1" xmlns="http://www.w3.org/2000/svg" xmlns:xlink="http://www.w3.org/1999/xlink" viewBox="0 0 512 483" width="50px">
<g>
	<path fill="#F15B5B" d="M205.8,406.5c2.9-18.1,1.6-36.1-3.5-53.1c-0.8-2.8-1.8-5.7-2.8-8.5c0,0,0,0,0-0.1c-1.1-2.8-2.2-5.5-3.5-8.3
		c-0.8-1.7-1.5-3.4-2.4-5c31.3-15.4,53.3-42.7,62.6-74.2c-2.7-8.9-4.3-18-4.9-27.2c-2.4,39-25.4,74.9-62.3,92.9
		c-1.4-2.2-2.9-4.4-4.4-6.6c-14.2-19.6-34-34.2-56.3-42.4c-13.3-4.9-27.5-7.6-42.1-7.6c-13.6,0-26.8,2.3-39.4,6.7
		c0.2-1.6,0.3-3.3,0.3-4.9c0-8.1-2-15.7-5.6-22.3c15.9-18.2,41.2-19.8,41.5-19.8c2.7-0.1,4.7-2.4,4.6-5.1c-0.1-2.7-2.5-4.7-5.1-4.6
		c-1.4,0.1-28.2,1.7-46.7,21.3c-1.9-2.2-4-4.3-6.3-6.1c-2.8-34.5,10.8-67.6,35.1-90.3c0.3-0.3,0.6-0.6,1-0.9
		c1.7-1.5,3.4-2.9,5.1-4.4c1.2-1,2.4-1.9,3.7-2.8c1.1-0.8,2.3-1.7,3.4-2.4c2.4-1.6,4.9-3.2,7.5-4.7c0.1-0.1,0.3-0.2,0.4-0.3
		c6.3-3.5,13-6.5,20-8.7c11.2-3.6,22.8-5.5,34.4-5.5c48.4,0,90.9,30.9,105.8,77c2.9,9.1,4.6,18.2,5.2,27.3
		c0.5-9.2,2.1-18.5,4.8-27.6c-0.3-0.9-0.5-1.8-0.8-2.8c-8.7-26.8-26.1-48.8-48.3-63.6c-2.4-1.6-4.9-3.1-7.4-4.5l0,0
		c-1.4-0.8-2.7-1.6-4.1-2.3l0,0c-1.8-0.9-3.6-1.7-5.5-2.5c-15.3-6.9-32.1-10.7-49.7-10.7c-6.8,0-13.5,0.6-20.2,1.8
		c-4.6-32.3-21.7-60.1-46.1-78.8C51.6,22.6,30.5,14.2,12.8,0.7C8.7,0.3,4.5,0,0.3,0C0.2,0,0.2,0,0.1,0v9.7c0.1,0,0.1,0,0.2,0
		c56,0,102.6,40.9,110.3,95.8c-2.6,0.7-5.1,1.4-7.6,2.2c-7.7,2.5-15,5.8-21.8,9.7c-0.3,0.2-0.6,0.3-0.9,0.5
		c-2.6,1.5-5.2,3.1-7.6,4.8c-1.2,0.8-2.4,1.7-3.6,2.5c-1.3,1-2.6,2-3.9,3c-1.9,1.5-3.7,3-5.5,4.6c0,0,0,0-0.1,0.1
		c-11,9.9-20.3,21.7-27.3,35.3c-9.2,18-13.6,37.6-13.2,57.3c-5.8-2.5-12.1-4-18.8-4c-0.1,0-0.1,0-0.2,0v8.9c0.1,0,0.1,0,0.2,0
		c20.9,0,37.9,17,37.9,37.9c0,20.9-17,37.9-37.9,37.9c-0.1,0-0.1,0-0.2,0v11.9c20.7,25.8,28.3,59.2,22.3,90.7
		c-0.1,0.5-0.2,0.9-0.3,1.4c-0.4,2.2-1,4.3-1.6,6.5c-0.4,1.5-0.8,3-1.3,4.5c-0.4,1.3-0.9,2.6-1.3,3.9c-1,2.8-2.1,5.6-3.3,8.3
		c-0.1,0.1-0.1,0.2-0.2,0.4c-3,6.6-6.7,12.9-11.1,18.9c-1,1.4-2.1,2.8-3.2,4.1v15.7c3.7,3.8,7.7,7.3,11.9,10.5h17.2
		c-8.3-5-16.1-11-22.9-18c1.7-2,3.3-4.1,4.9-6.3c4.7-6.5,8.6-13.4,11.9-20.5c0.5-1.1,1-2.1,1.4-3.2c0.6-1.5,1.2-2.9,1.8-4.4
		c7.6-19.6,9.9-41,6.5-62.3c-3.2-20-11.1-38.5-23-54.2c9.4-1.9,17.8-6.7,24.2-13.4c22.3,9.5,31.6,33.1,31.8,33.4
		c0.7,1.9,2.6,3.1,4.5,3.1c0.6,0,1.2-0.1,1.7-0.3c2.5-1,3.8-3.7,2.8-6.2c-0.5-1.3-10.3-26.3-34.7-37.9c1.6-2.5,2.9-5.2,4-8
		c13.5-5.6,27.8-8.5,42.6-8.5c13.2,0,26.2,2.4,38.3,6.8c20.4,7.6,38.4,21,51.5,39c17.5,24.1,24.5,53.5,19.9,82.9
		c-4.6,29.4-20.5,55.2-44.5,72.6c-2.6,1.9-5.4,3.7-8.1,5.4h16.9C184.9,464.1,201,437.1,205.8,406.5z"/>
	<path fill="#F15B5B" d="M261,230.2c0.3-4.5,0.2-9.1,0-13.7C260.7,221.1,260.7,225.7,261,230.2z"/>
	<path fill="#F15B5B" d="M29.2,0H11.9c0.3,0.2,0.6,0.5,0.9,0.7c22.8,2.3,43.8,11,61.1,24.3c4.1,0.4,8.3,0.7,12.5,0.7
		c18.7,0,36.8-4.3,53.4-12.5c2-1,4-2.1,6-3.2c0.3-0.2,0.7-0.4,1-0.6c2.1-1.2,4.2-2.5,6.2-3.9c1.5-1,3-1.9,4.5-3
		c1.1-0.8,2-1.7,3.1-2.5h-16.9c-17.3,10.4-36.9,15.9-57.2,15.9C66,15.9,46.3,10.2,29.2,0z"/>
	<path fill="#F15B5B" d="M12.8,0.7c17.7,13.5,38.8,21.9,61.1,24.3C56.6,11.7,35.6,3,12.8,0.7z"/>
	<path fill="#F15B5B" d="M192.5,15C176.7,10.9,162,7.2,153,5.4c0,0,0,0,0,0c-2,1.4-4.1,2.7-6.2,3.9c-0.3,0.2-0.7,0.4-1,0.6
		c-2,1.1-4,2.2-6,3.2l0,0c3.8,0,7.5,0.2,10.9,0.8c13.6,2.3,51,12.4,74.9,19c-0.1,0.9-0.1,1.8-0.1,2.7c0,1.8,0.2,3.5,0.5,5.3
		l-39.9,13c-2.3,0.7-3.5,3.2-2.8,5.5c0.7,2.3,3.2,3.5,5.5,2.8l39.9-13c1.2,2.4,2.7,4.6,4.4,6.6c-13.8,17.3-34.8,43.3-45.9,55.6
		c0.9,0.4,1.8,0.9,2.8,1.3c1.8,0.8,3.7,1.6,5.5,2.5c6-6.8,13.5-15.8,21.5-25.5c-6.6,10.3-12.8,20.1-17.3,27.8c2.5,1.4,5,2.9,7.4,4.5
		v0c8.8-15,25.7-40.8,37.2-58.2c2.4,1,5,1.7,7.7,2.1v41.9c0,2.4,1.9,4.3,4.3,4.3c2.4,0,4.3-1.9,4.3-4.3V66c2.7-0.4,5.3-1.1,7.7-2.1
		c11.4,17.3,28.1,42.8,37,57.8c0,0,0,0,0,0c2.4-1.6,4.9-3.1,7.4-4.5c-4.5-7.6-10.6-17.3-17.1-27.4c7.8,9.5,15.2,18.4,21.1,25.1
		c0,0,0,0,0,0c2.7-1.4,5.4-2.6,8.2-3.8c-11.2-12.5-31.9-38.1-45.6-55.3c1.8-2,3.2-4.2,4.4-6.6l39.9,12.9c2.3,0.7,4.7-0.5,5.5-2.8
		c0.7-2.3-0.5-4.7-2.8-5.5l-39.9-13c0.3-1.7,0.5-3.5,0.5-5.3c0-0.9-0.1-1.8-0.1-2.7c23.8-6.6,61.3-16.7,74.9-19
		c3.4-0.6,7.1-0.8,11-0.8l0,0c-2.1-1-4.2-2.2-6.3-3.3c-0.3-0.1-0.5-0.3-0.8-0.4c-2.1-1.2-4.2-2.5-6.3-3.9c-9,1.8-23.7,5.4-39.4,9.5
		c12.9-5,24.9-9.9,33.4-13.6c-0.6-0.4-1.1-0.9-1.7-1.3h-17.5c-16,6.5-36.5,14.3-51.5,19.9c-1.4-2.3-3-4.4-4.9-6.3L287.3,0h-10.7
		l-6.2,8.5c-2.3-1.2-4.8-2.2-7.5-2.8c0.1-1.8,0.2-3.8,0.3-5.8H249c0.1,2,0.2,3.9,0.3,5.8c-2.6,0.6-5.2,1.5-7.5,2.8L235.6,0h-10.7
		l9.9,13.6c-1.9,1.9-3.6,4-4.9,6.3C214.7,14.3,194.2,6.5,178.3,0h-17.8c-0.5,0.4-1,0.9-1.6,1.3C167.4,5,179.5,9.9,192.5,15z
		 M256.1,15.1c11.4,0,20.6,9.2,20.6,20.6c0,11.4-9.2,20.6-20.6,20.6c-11.4,0-20.6-9.2-20.6-20.6C235.5,24.3,244.7,15.1,256.1,15.1z"
		/>
	<path fill="#F15B5B" d="M195.3,115.2c-1.8-0.9-3.6-1.7-5.5-2.5C191.7,113.5,193.5,114.3,195.3,115.2L195.3,115.2z"/>
	<path fill="#F15B5B" d="M206.9,122.1c-2.4-1.6-4.9-3.1-7.4-4.5l0,0C202,119,204.4,120.5,206.9,122.1z"/>
	<path fill="#F15B5B" d="M139.8,13.1c2-1,4-2.1,6-3.2C143.8,11,141.8,12.1,139.8,13.1z"/>
	<path fill="#F15B5B" d="M146.7,9.3c2.1-1.2,4.2-2.5,6.2-3.9C150.9,6.8,148.8,8.1,146.7,9.3z"/>
	<path fill="#F15B5B" d="M251.2,216c-0.3,4.8-0.2,9.5,0.1,14.3C251.5,225.5,251.5,220.8,251.2,216z"/>
	<path fill="#F15B5B" d="M481.9,483H499c4.4-3.4,8.6-7.1,12.5-11.1c0.2,0.2,0.4,0.4,0.5,0.5v-15.7
		C503.6,467.4,493.3,476.2,481.9,483z"/>
	<path fill="#F15B5B" d="M439.7,24.3c-24.9,18.7-42.4,46.8-47.1,78.9c-6.8-1.2-13.7-1.8-20.6-1.8c-16.7,0-32.7,3.4-47.3,9.6l0,0
		c-2.8,1.2-5.5,2.4-8.2,3.8c-1.4,0.7-2.7,1.5-4.1,2.3v0c-2.5,1.4-5,2.9-7.4,4.5c-22.2,14.7-39.5,36.7-48.2,63.4
		c-0.4,1.1-0.7,2.2-1,3.3c2.8,9.3,4.4,18.7,5,28.1c0.5-9.5,2.2-19.1,5.2-28.4c15-46,57.5-77,105.9-77c6.5,0,12.9,0.6,19.3,1.7
		c-0.2,2.6-0.3,5.3-0.3,7.9c0,8.3,1,16.5,2.6,24.4c0.1,0.2,0.1,0.5,0.2,0.7c0.6,2.7,1.2,5.3,2,7.9c0.5,1.7,1,3.4,1.6,5.1
		c0.3,0.8,0.5,1.6,0.8,2.4c12.8,36.2,42.4,64.5,79.4,75.6c-6.1,6.8-10.3,15.4-11.6,24.9c-23.8,5.8-45.6-8.1-45.9-8.3
		c-2.2-1.5-5.2-0.8-6.7,1.4c-1.5,2.2-0.8,5.2,1.4,6.7c1,0.6,17.7,11.4,39,11.4c3.8,0,7.8-0.4,11.9-1.2c0.2,2.8,0.7,5.5,1.4,8.2
		c-14.7,24.5-38.2,42.1-65.1,49.7c-0.6,0.2-1.2,0.4-1.9,0.5c-1.3,0.3-2.6,0.6-3.9,0.9c-1.7,0.4-3.5,0.8-5.3,1.1
		c-0.6,0.1-1.2,0.2-1.8,0.3c-5.6,0.9-11.3,1.3-17.1,1.3c-11.7,0-23.2-1.8-34.4-5.5c-28.3-9.2-51.3-28.8-64.8-55.3
		c-6.9-13.6-10.9-28.1-11.9-42.8c-0.5,9.3-2.2,18.4-4.8,27.2c2.1,6.8,4.7,13.5,8,20c12,23.5,30.9,41.9,54.1,53.3
		c-1.1,2-2,4.1-2.9,6.2c-1.2,2.7-2.4,5.4-3.4,8.1c-0.1,0.2-0.2,0.5-0.3,0.7c-1,2.7-1.9,5.4-2.7,8.1l0,0c-13.1,45,1,94.2,37.7,125.4
		c1.5,1.3,3.1,2.5,4.7,3.7h17.1c-3-1.8-5.9-3.6-8.8-5.7c-45.3-32.9-59-93.4-32.9-142.3c2.4,1,4.9,1.9,7.4,2.7c12.2,4,24.7,6,37.4,6
		c6.4,0,12.6-0.6,18.8-1.5c0.6-0.1,1.2-0.2,1.8-0.3c2-0.3,3.9-0.7,5.9-1.2c1.2-0.3,2.5-0.5,3.7-0.9c0.4-0.1,0.8-0.2,1.1-0.3
		c27.9-7.4,52.1-24.5,68.5-48.2c4.6,8.2,11.6,14.8,20.1,18.9c-2,24.4-21.8,40.7-22,40.9c-2.1,1.7-2.4,4.7-0.7,6.8
		c1,1.2,2.4,1.8,3.8,1.8c1.1,0,2.1-0.3,3-1.1c1.1-0.9,22-18.1,25.3-45c2.7,0.7,5.6,1.1,8.5,1.3c0.9,1.1,1.8,2.1,2.6,3.2v-11.9
		c-20.9-0.1-37.7-17-37.7-37.9c0-20.9,16.9-37.8,37.7-37.9v-8.9c-2.8,0-5.6,0.3-8.3,0.8c-12.7-20.8-6.3-45.7-6.2-46
		c0.7-2.6-0.8-5.2-3.4-5.9c-2.6-0.7-5.2,0.8-5.9,3.4c-0.4,1.3-7.2,27.6,6,51.3c-2.6,1.1-5.1,2.4-7.5,4c-34.1-8-61.7-31.5-75.8-62.1
		c0-0.1-0.1-0.1-0.1-0.2c-1.2-2.6-2.3-5.3-3.3-8c-0.3-0.7-0.5-1.5-0.7-2.2c-0.5-1.5-1-3.1-1.5-4.7c-2.8-9.8-4.4-20.2-4.4-30.9
		C401,59.7,450.8,9.8,512.1,9.7V0c-4.9,0-9.6,0.4-14.3,1C480.9,13.6,460.9,21.7,439.7,24.3z"/>
	<path fill="#F15B5B" d="M251.2,230.3c0.6,9.2,2.2,18.3,4.9,27.2c2.6-8.8,4.3-17.9,4.8-27.2c-0.3-4.6-0.3-9.1,0-13.7
		c-0.5-9.3-2.2-18.8-5-28.1c-2.7,9.1-4.3,18.3-4.8,27.6C251.5,220.8,251.5,225.5,251.2,230.3z"/>
	<path fill="#F15B5B" d="M324.7,111c-2.8,1.2-5.5,2.4-8.2,3.8C319.2,113.5,321.9,112.2,324.7,111L324.7,111z"/>
	<path fill="#F15B5B" d="M312.5,117.1c-2.5,1.4-5,2.9-7.4,4.5C307.5,120.1,310,118.6,312.5,117.1L312.5,117.1z"/>
	<path fill="#F15B5B" d="M353.1,1.3c0.3,0.3,0.6,0.5,1,0.8c1.6,1.2,3.3,2.2,5,3.3l0,0c2.1,1.4,4.2,2.6,6.3,3.9
		c0.3,0.1,0.5,0.3,0.8,0.4c2.1,1.2,4.2,2.3,6.3,3.3c16.3,7.9,34.2,12.1,52.6,12.1c4.9,0,9.8-0.3,14.6-0.9
		c16.6-12.5,36.4-20.7,58-23.3c0.4-0.3,0.8-0.7,1.3-1h-17.1c-17,10-36.6,15.6-56.8,15.6c-20.1,0-39.5-5.4-56.6-15.6h-17.1
		C352,0.4,352.5,0.9,353.1,1.3L353.1,1.3z"/>
	<path fill="#F15B5B" d="M372.5,13.1c-2.1-1-4.2-2.2-6.3-3.3C368.2,10.9,370.4,12.1,372.5,13.1z"/>
	<path fill="#F15B5B" d="M353.1,1.3c-0.6-0.4-1.1-0.9-1.7-1.3h0C352,0.4,352.5,0.9,353.1,1.3L353.1,1.3z"/>
	<path fill="#F15B5B" d="M359.1,5.5c2.1,1.4,4.2,2.6,6.3,3.9C363.2,8.1,361.1,6.8,359.1,5.5L359.1,5.5z"/>
	<path fill="#F15B5B" d="M439.7,24.3c21.1-2.6,41.2-10.7,58-23.3C476.1,3.6,456.3,11.8,439.7,24.3z"/>
	<path fill="#F15B5B" d="M309,353.9c0.8-2.7,1.7-5.4,2.7-8.1c0.1-0.2,0.2-0.5,0.3-0.7c1-2.7,2.2-5.4,3.4-8.1c0,0,0,0,0,0
		c-2,0.8-4,1.7-6,2.7c-26.6,13.1-46.2,44.4-49.7,68.5c-1.2,8.5-2.5,25.4-3.6,43.7c-1.1-18.3-2.3-35.2-3.6-43.7
		c-3.5-24.1-23.1-55.4-49.7-68.5c-2.3-1.1-4.6-2.1-6.8-3c0,0,0,0,0,0c1.3,2.7,2.4,5.5,3.5,8.3c0,0,0,0,0,0.1c1.1,2.8,2,5.6,2.8,8.5
		c0,0,0,0,0,0c22.4,11.4,38.8,37.9,41.8,58.3c1.8,12.6,3.7,46.7,4.8,71.3h14.2c1.1-24.6,3-58.7,4.8-71.3
		C270.9,391.5,287,365.5,309,353.9z"/>
	<path fill="#F15B5B" d="M211.1,456.7c-1.9,1.4-2.4,4.1-1,6.1l14.7,20.3h10.7l-18.4-25.4C215.7,455.7,213,455.3,211.1,456.7z"/>
	<path fill="#F15B5B" d="M160.5,483h17.8c-4.3-1.7-8.3-3.4-11.7-4.9C164.6,479.8,162.6,481.4,160.5,483z"/>
	<path fill="#F15B5B" d="M345.4,478.2c-3.4,1.4-7.3,3.1-11.5,4.8h17.5c-1.6-1.2-3.2-2.4-4.7-3.7
		C346.3,478.9,345.8,478.6,345.4,478.2z"/>
	<path fill="#F15B5B" d="M301.1,456.7c-1.9-1.4-4.6-1-6,1L276.6,483h10.7l14.7-20.3C303.5,460.8,303.1,458.1,301.1,456.7z"/>
	<path fill="#F15B5B" d="M196,336.6c1.3,2.7,2.4,5.5,3.5,8.3C198.4,342.1,197.3,339.3,196,336.6z"/>
	<path fill="#F15B5B" d="M199.5,344.9c1.1,2.8,2,5.6,2.8,8.5C201.5,350.5,200.6,347.7,199.5,344.9z"/>
	<path fill="#F15B5B" d="M309,353.9c0.8-2.7,1.7-5.4,2.7-8.1C310.7,348.4,309.8,351.1,309,353.9L309,353.9z"/>
	<path fill="#F15B5B" d="M315.4,336.9c-1.2,2.7-2.4,5.4-3.4,8.1C313,342.3,314.1,339.6,315.4,336.9z"/>
	<path fill="#F15B5B" d="M351.4,483L351.4,483c-1.6-1.2-3.1-2.4-4.7-3.7C348.3,480.6,349.8,481.8,351.4,483z"/>
</g>
</svg>
