<?xml version="1.0" encoding="utf-8"?>
<!-- Generator: Adobe Illustrator 18.0.0, SVG Export Plug-In . SVG Version: 6.00 Build 0)  -->
<!DOCTYPE svg PUBLIC "-//W3C//DTD SVG 1.1//EN" "http://www.w3.org/Graphics/SVG/1.1/DTD/svg11.dtd">
<svg version="1.1" id="Ninja" xmlns="http://www.w3.org/2000/svg" xmlns:xlink="http://www.w3.org/1999/xlink" x="0px" y="0px"
	 viewBox="0 0 595 842" enable-background="new 0 0 595 842" xml:space="preserve">
<path fill="#F68E54" d="M592.4,277.6l-7-1.5l-91.8-19.8l1.3-1.9l-3.5-2.8c-1.7-1.4-3.4-2.8-5.1-4.1c-10.1-8.3-20.5-16.8-34.2-20.3
	l-3-0.7l-4.8,5.9l-9.1-3.4l-7.7,9.4l-19.6-9.1l-3.6-10.1c11.7-6.4,21-16.5,27.8-26.8l3.8-1.7c7.7-3.4,19.2-22.8,20.4-24.5
	c0,0,5-11.8,7.1-17.5s5.8-39.1,4.9-46.7c-0.9-7.6-6.7-19.7-12.6-25.8C452.2,65.5,429.9,42,429.9,42l-35.6-17.8l-6.4-0.7l-7.3,3.4
	l-49.4,40.7l-9.4,19.8c-7.6,6.4-14.6,13.7-19.6,23.1l-0.6,1.1v12.7l-10.7,2.7l-5.6-2.8h-5.2l-74.5,24.7l-13.2,7.4l-11,8.4l-0.5,1.3
	c-5.2,14-17.3,24.4-29,34.4c-4.4,3.8-9,7.7-13.1,11.8l-0.8,0.8l-0.4,1.1c-6.8,19.6-17.8,40.6-25.1,54.5l-5.7,10.9L37.5,338l-7.2,8.2
	l-3.6-1.7L3.9,366l5.2,20.6l0.9,0.9c5.5,5.5,10.8,7.5,16.1,6.4l1.2-0.3l45.1-38.5c-2.2,12.9-1.3,27.1,2.7,42.4l0.4,1.7l11,7.1
	c8.8,0.4,24.6-0.1,33.8-1.1l-44.3,53.3l-17.3,26.3c0,0-1.8,20.6-1.6,29.8c0.2,9.2,0.2,60.2,0.2,60.2l-1.4,35.2l31.5,5.3l4.5-33
	c1.8,2.6,3.9,8.2,3.9,8.2l12.7,22.2l37,23.7c13.3,17.6,29.5,34.4,50,51.6l-9.8,4c-4.4-9.7-9.6-19.7-19.1-19.7
	c-3.5,0-11.3,4.4-11.3,4.4l-8.6-9.4l-4.5,7.1h-16.7l-0.8,3.9c-0.1,0.5-0.4,0.9-0.5,0.9c-2.1,0-6.2-2-10.3-5l-3.7-2.8l-6.9-11.1
	l-9.9-2l-10,1.4l-11.3,7.2l-2,21.2c0,0,1.2,16.6,0,21.7l-37.5,69.4v7.9c0,0,14.4,26.4,18.8,27.6c4.4,1.3,73.6-0.6,73.6-0.6l9.4-13.2
	l-13.8-9.4l-14.6-16.2l8.6-11.9l0,0l0,0.2h15.8l9.7-1.5c0.8-0.6,10.6-4.6,13-7.4c7.7,7.8,19,9.6,27.6,10.3l2.1,0.2l11.2-10.5
	l11.9,22l-4.8,1.6l7.2,15.3l4,9l22.9-9.6l13.5,10.6l-0.6,3.4l38.1,1.1l1.4-0.9l0.1,0.2l-0.1-0.2l0.6-0.4l71.6-2.8l3.4,4.1h2.3
	c1.6,0,3.3,0,4.9,0c1.7,0,3.3,0,5,0c9.8,0,20.9-0.4,30.3-4.8c1.8,2.9,4.7,4.5,8.3,4.5c4,0,8.1-2,12-3.9c2-0.9,4.1-2,5.5-2.3
	l22.4,1.1c0,0,7.9-2.4,10.3-6c1.5-2.3,1.8-5.1,0.8-8.3l-0.3-1.1l-7.7-8.5l-11.4-7.8l-27-11.1l1.1-8l-12.3-1.9l-1.4,0.7
	c-1.4,0.7-2.7,1.1-3.9,1.1c-4.7,0-9.1-5.6-13.4-11.1c-1-1.3-2.1-2.6-3.1-3.9l-0.7-0.9l-10.2-4.6l-1.4-7.1l-4.7-4.1l-9.2-6.1l-9-17.6
	l-1.7-5l0.7-0.7l4.5,0.9l34.2-34.2v-15l30.9-25.7l6.3-26.4l20.1,1.7l10.9,1l11.9-1.7l-12-45.5c9-5.4,14-13.5,13.8-22.4l20-19.5
	l-0.4-2.5c-4-23.9-17.3-44-30.2-63.5c-4.4-6.7-8.5-12.9-12.3-19.4l-0.5-0.8l-25.1-18.6l-11.8-1.3c-29.2-3.2-59.3-6.6-89.6-7
	c4.1-2.1,7.9-4.9,11.1-8.7l10.4-6.3l0-0.1c1.1,0.6,2.3,1.1,3.5,1.5l7.9,3l6.8,5.8l15.4-17.1l5.1,3.1c13,1.9,27.8,0.7,27.8,0.7
	s10-0.7,14.9-2l7.3,1.5l25.1,6.4l2.5-6.7l10.8-9.7l13.9-7.3l5.3-8.9l0.2-0.9c1.6-8.7,0.8-18.2-2.2-27l0.9-6.3c1-7.2-0.2-13.8-2-19.8
	l71.8,21.5l1.6-0.7c13.1-5.9,21.1-13.7,24.5-23.7L592.4,277.6z M322,580.8l-11.6,18c-1.3,2-4.2,6.3-5.4,11.7l-29.6-26l-5-4.1
	l60.3-15.3L322,580.8z"/>
<path fill-rule="evenodd" clip-rule="evenodd" d="M388.7,28.7l4.2,0.5l34,17c9.3,10.7,20.7,19.3,24.4,32.8
	c5.6,5.6,12.6,13.7,12.1,23c-7.4-13-16.8-25.8-33.3-27.7c-25.8,6.5-50.3,24-66.3,45.6l-2.3,45.2l-2.8-2.8
	c-0.9-4.9-2.3-11.4-8.4-11.9c-8.4-15.1-34.2-8.8-43.8-24.4v-13c10.5-19.8,31-29.8,47-43.8l26.8-20.3l4.7-8.8l-15.8,10.7l-40,32.8
	l6.1-12.8l47.5-39.3L388.7,28.7L388.7,28.7z M381.2,105.3l1.4,1.9l2.8,3.7l4.7,0.2l5.8,3.7c18.2,2.3,38.4,1.4,50.3,16.3l7.4,5.8
	l-0.9-23l-7-2.8l4.2-4l-2.8-4.2l3.7-5.6l-6.5-14.2L429.2,78C411.2,83.2,395.2,92,381.2,105.3L381.2,105.3z M380.3,107.1l-6.1,5.4
	l9.8,8.4l10.5,3.3c22.3-0.5,40.7,7,57.3,20.7l7.4,3.3c3.7-14.7,4.2-31.9,0-46.1l-5.1-6.1l-4.2,9.3c4.7,0,4.2,4.7,0.5,5.6h3.7
	l4.2,29.8l-2.8,3.3l-9.8-8.1c-11.4-14-29.8-15.8-47.5-16.3l-15.1-6.5L380.3,107.1L380.3,107.1z M371.4,115.3
	c-6.1,6.5-4.7,17.2-5.6,26.3l4.2-0.9c1.4-6.3,6.5-10.9,14-9.5l12.3,8.6l-7.7-10.9l10.5,5.1c4.7-0.5,9.8,0,12.1,4
	c6.5,0.9,8.1,5.1,9.1,10.7h5.1c5.6-3.7,0-9.3-1.4-13.3h1.4l7,7.7c3.3-0.9,7.4,0,9.3,2.8l-10.2,0.5c-2.3,1.4-1.4,6.1,0.9,5.6
	l18.9-3.3l-11.9-7.4l-15.8-8.8l-40.5-7.7l-6.5-6.5L371.4,115.3L371.4,115.3z M337.5,145.3l-3.7-2.3l-2.8,0.5
	c-9.8-2.8-18.9-5.6-26.8-14.7l-9.1,2.3l2.1,1.9l15.6,7.9l11.2,3.7l7.7,1.4L337.5,145.3L337.5,145.3z M114.9,274.5l142.9-122.7
	c5.8-0.9,8.1,4.2,11.6,8.4l26.1-12.6c4,0,9.1-0.5,10.5,4.2c16.5-1.9,34.4,6.1,48.9,10.5l-2.3-7.2c-8.4-4.2-17.5-6.5-28.2-6.1
	l-40.3-19.8h-3.3l-73.8,24.4l-12.3,7l-9.3,7.2c-7.7,20.7-28.4,33.3-43.3,47.9C134.7,237.5,122.4,260.3,114.9,274.5L114.9,274.5z
	 M378.9,134.4c-3.3,3-8.4,8.6-4.7,12.8l5.1-6.1l6.1,7.4l31.9,2.3l-1.9-2.8l-10.7,0.9l-10.7-3.7v-1.9l1.9-1.4L378.9,134.4
	L378.9,134.4z M402.4,137.4l-2.3,5.6h9.3L402.4,137.4L402.4,137.4z M378.4,145.3l-0.9,2.8l4.7,0.5L378.4,145.3L378.4,145.3z
	 M364.7,145.8l1.2,12.1v10l27.5,22.6l0.5,7l4,7c4.2-7,14-14,10.2-22.6l2.3-4.2l8.6,4.2l14-12.6l-9.8-14.7
	C402.9,154.6,381.2,156,364.7,145.8L364.7,145.8z M433.8,186.5c8.4-3.7,13.3-15.4,18.4-22.8l3.3-11.9l-0.9-2.3l-4.7,11.9l-3.3,4.2
	L433.8,186.5L433.8,186.5z M437.1,152l-0.5,2.1l5.1-0.5L437.1,152L437.1,152z M296,151.8l-24.2,10.9l3,19.1l-9.1,9.1l24.7-10.5
	l27.9-7c-1.4-7-4.4-16.5-13.3-17.5C302.8,153.2,300.4,150.4,296,151.8L296,151.8z M448.9,153.2l-4.7,0.5l3.3,3.7L448.9,153.2
	L448.9,153.2z M297.2,154.1l-1.6,6.5h6.8C306.5,157.4,301.8,152.7,297.2,154.1L297.2,154.1z M315.1,156l6.5,18.9l11.6,2.8
	c6.1-6.1,14.2-8.4,21.6-10.2C341.9,161.8,329.5,157.4,315.1,156L315.1,156z M260.2,157.4l2.1,0.5l7.9,21.2l-1.4-1.9h-2.6
	C262.5,171.6,257.8,164.6,260.2,157.4L260.2,157.4z M442.2,157.9v0.9h-1.9l3.3,1.4c0.2,2.6,3.5,0,0.7-0.5L442.2,157.9L442.2,157.9z
	 M254.6,160.9l0.7,0.9l-2.3,1.9l1.9,15.4v1.4l-2.6-1.4l-7.2-0.9c-1.2-4.7,0-13,5.4-13L254.6,160.9L254.6,160.9z M436.6,160.9
	c-0.5,3.7,3.7,8.4,6.1,3.3l-0.9-0.9L436.6,160.9L436.6,160.9z M306,166.5l6.1,1.4l-1.4,6.1h-1.9C304.2,176.7,301.8,169.3,306,166.5
	L306,166.5z M256.9,166.9l9.1,17.2L25.1,389.5c-4.4,0.9-8.4-1.9-11.6-5.1l-4.2-16.5l18.4-17.2l4,1.9l9.1-10.5l200.6-169.9
	c-1.4,6.1,3.7,15.8,10.9,11.2l5.4,2.3L256.9,166.9L256.9,166.9z M404.3,234l-17.9-9.3c-9.3-0.5-18.2,2.3-24.4,6.5
	c-16.3,2.3-28.6,14.7-38.9,26.8l-0.5,5.6l12.1,3c25.4-2.1,47.9-10.9,70.5-21.6l6.1,0.5l12.3,13c-16.1,0.5-27.7,10.5-41.4,16.1
	c-27.2,26.3-47.5,60.5-35.1,98.7c-19.3-7.2-16.5-30.7-23.5-45.2l-1.9,3.3l2.8,17.9c-11.4-1.9-22.1,3.3-32.1,5.1l-8.1-7.9l-0.5-13.3
	c-18.4-63.3,27.5-120.3,81.2-143.1l4.2-4.4l-2.3-5.1c-27.9,0-47.9,20.3-66.3,39.1c-27.5,23.5-35.8,60.5-37.9,96.6l0.5,11.4l6.3,8.4
	c-1.4-11.6-4.4-27.2-1.4-40.3c3-21.2,11.2-41,20.5-59.4c19.1-17.2,37-40.3,60.5-50.3l16.5-1.4c-52.4,25.4-105.9,82.9-85.9,149
	l0.5,13.7l6.5,8.4l-62.1,31.4c-2.1,8.6,1.4,16.1,7.9,20.3l-20.7,7.9L185,388.5c-29.3,6.3-63.1,15.1-94,13.3
	c-3.3-13.3-2.1-37.7,6.1-53.1l15.6-26.8c41.4-26.8,79.1-58,114.8-94l-2.8-2.8l27.5-23.5c21.4-10.7,42.6-19.3,66.3-24l13.5,3.3
	l-57.7,34.4l0.5,3.3l12.3-7.7l6.3-4.7c17.5-5.1,30.7-15.8,46.1-25.8l2.6-5.1l20-6.1l27.2,22.1L404.3,234L404.3,234z M437.1,172.1
	c-6.1,16.3-18.9,34.2-35.6,43.3l-2.8-6.3l14.9-20l-0.5-3l7.7,2.3l0.9-1.4C421.7,178.6,431,174.4,437.1,172.1L437.1,172.1z
	 M268.3,195.1l3.3,2.3c-15.4,14.9-29.8,31-40.7,49.3l-6.1,5.6c-17.9,26.3-40.7,51.2-66.3,69.6l-3,0.5l0.9-4
	c29.6-17.7,49.3-48.6,71.9-73.6C238.5,226.5,253.9,210.5,268.3,195.1L268.3,195.1z M342.8,209.1l1.4,2.3
	c-16.5,22.6-28.6,45.6-41.4,69.1l-2.8,10.9l4.2,22.8l3.7,3.7l2.3-4.7c-0.5-16.3,7.2-32.4,21.2-39.8l3.7,0.9v2.3
	c-11.6,4.2-19.1,16.5-20.3,29.1c-0.9,6.1-0.5,13.3-6.5,16.1l-5.6-1.9c-5.1-8.6-6.8-17.9-6.8-28.6l2.6-10.5
	C312.1,255.6,325.3,231.2,342.8,209.1L342.8,209.1z M408,240.7h-4.2l-15.1,8.4h-3.7c-17.7,7.9-37.5,14.4-58.2,12.1l1.9-4.7
	c9.8-7.9,18.4-20.3,32.4-20.7c6.8-4.7,15.6-7.4,24.9-7L408,240.7L408,240.7z M426.8,263.5l2.8-0.5l-0.9-3.7l22.1-27.2
	c14.9,3.7,25.8,14.2,37.5,23.5l-0.9,1.4l-17.7-4.2l-10.9-0.9l-0.9,6.1l-5.6,7.2l-7.9-7.7l-10.9,7L426.8,263.5L426.8,263.5z
	 M408,234.9l8.4,7.2c-1.4,3.3,0.9,4.7,3.5,6.5l3.7-6.5L408,234.9L408,234.9z M436.6,234.9l-13.5,16.5l2.8,4.7l3.3-3.3l11.2-16.5
	L436.6,234.9L436.6,234.9z M212,235.4c-10.5,11.9-22.1,26.8-36.8,34l-37.9,32.4l-11.2,8.4l-5.4,1.9L212,235.4L212,235.4z
	 M463.8,256.6l-7,10.5l7-5.8l4.2,2.8l92.2,18.9l19.3-2.8l-95.9-20.7l-12.1,0.5L463.8,256.6L463.8,256.6z M441.3,261.7l-1.9,1.9
	l2.8,0.5l22.6,41.4c0.9,13.3-4.2,24.9-10.2,35.6c-0.9,13.7-12.3,21.2-23,26.8l2.3,0.5l18.9,4.9l1.4-3.7l12.1-10.9l13.3-7l4.2-7
	c2.3-12.3-0.9-24.9-6.5-34c3.3-14.4-10.9-20-18.9-28.2l-14-20.7H441.3L441.3,261.7z M421.7,264.7l-1.4,1.9
	c-19.3,3.7-36.3,15.4-43.3,34.7c-9.3,11.6-14.2,24.9-12.3,40.7l-2.3,13.7l18.4,11.2c10.7-31,25.8-61,41-90.1l7.9-7.9L421.7,264.7
	L421.7,264.7z M436.6,267l-10.7,9.8c-16.1,28.2-29.1,57.3-40.5,86.4v5.8l22.1-0.7c15.1,0.2,27.2-6.1,38.6-14.9
	c5.6-16.1,15.8-29.1,14.4-47.5L439.9,267H436.6L436.6,267z M466.2,267l96.4,19.6l20.3-4.7l-4.2,5.1c-3.3,10.9-12.8,17.5-22.1,21.6
	l-73.8-22.1c-3.3-7.9-11.6-9.8-17.5-14.4L466.2,267L466.2,267z M455.9,270.3l3.3,0.9l0.5,2.8l17.5,9.8c2.8,8.1,6.5,17.5,5.1,27.7
	l-0.9-3.7c2.8-17.7-20.7-20.3-23-35.6L455.9,270.3L455.9,270.3z M393.3,273.6l-11.2,10.7c-12.1,20.7-24.9,41.4-32.4,64.9l5.6,25.4
	l1.9,1.9l8.6-3.7l-6.3,7l-9.3-7.9l-2.8-8.6l2.3-31l0.5-5.6c7.9-17.5,17.9-34.7,33.8-48.9L393.3,273.6L393.3,273.6z M107.5,322.9
	l-27.7,23c-5.6,16.8-4.2,34.7,0,50.7l7.2,5.1c-3.3-15.6,0.9-31.9,2.1-47.9l18.6-29.6L107.5,322.9L107.5,322.9z M360,330.8
	c-4.7,10.7-9.8,26.3-1.9,37.5l0.5,4l10.9-8.1l-10.5-6.5l1.9-26.8H360L360,330.8z M324,352l-34.2,5.6L272,369.5
	c-15.4,5.1-32.1,9.3-44.5,18.6v10l10,7.4l39.6-11.6l29.3-17.5c8.6-3.7,16.5-9.5,21.6-17.5C328.1,356.2,327.2,352,324,352L324,352z
	 M329.5,363.2c-5.1,6.3-12.1,12.3-19.8,15.1l-25.1,15.1c16.3-1.2,33.3-2.1,43.5-14.7l9.3-5.6l0.5-2.3L329.5,363.2L329.5,363.2z
	 M184.1,393.9l-9.1,1.9l18.9,19.6l5.1,4.7l8.8-3.3l-9.5-11.6l-1.4-2.8L184.1,393.9L184.1,393.9z M377,541.5l31-7
	c11.4,0,31-9.3,38.2,2.3l-1.9,1.9c-29.8,0.5-55.6,7.4-83.3,14.7l-6.5,7.4l-0.5,9.8c5.1,5.4,12.8,4.7,20.3,4.7l28.2-2.3l39.8,4.9
	l19.3,6.5l-6.1-23l-4.7-17.5c7.9-3.7,15.8-11.2,14.4-21.9l19.8-19.3c-5.1-30.7-26.8-55.6-41.9-81.2l-23.3-17.2
	c-47-5.1-99.6-11.9-148.7-5.6c-46.8,16.3-97.3,31.7-142.5,52.4L100,476.3c-17,24.9-20.5,57.3-10.9,86.8l24.4,22.1
	c15.1,5.1,37.2,12.6,52.4-0.5l-12.8-2.3l-28.9-7.7c-9.8-3.7-20.9-8.4-26.1-17.7h6.5l64,24c42.6-19.8,87.1-30.3,134.1-37.2l93.6-27.7
	C399.6,528.4,385.4,534.9,377,541.5L377,541.5z M167.3,396.7l-34.2,6.5l-3.5,0.5l2.8,3.3l30.7,14.9l3.3,2.8c9.8,0,20.5,0.9,28.2-3.7
	L171,396.7H167.3L167.3,396.7z M126.8,405.5l-47,56.6L63.5,487l-1.6,16.5l7.2-7.2L97,457.4c17.7-11.9,35.4-26.8,56.8-29.1l7.2-2.8
	L126.8,405.5L126.8,405.5z M165.4,428.8l7,0.5l-39.3,16.3l-3-0.5l-15.4,13.3c-5.1-0.5-8.6,4.2-12.3,7.9
	c-8.1,14.7-17.5,29.1-21.4,46.1l-5.4,7l-4.2,33.5l-8.1,17.7l-1.4-61.4l13.5-14.2C92.6,458.4,128.2,435.3,165.4,428.8L165.4,428.8z
	 M434.7,429.7h1.9c16.1,17.2,33.5,34.7,32.1,60.5c-10,17.5-31.7,27.2-45.6,38.6l-5.8-2.3l-0.9-4.2l35.8-38.6l-15.6-46.1l-3.3-5.6
	L434.7,429.7L434.7,429.7z M441.3,441.4c14.2,11.4,24.9,29.6,23.5,49.3c-5.6,7.2-13,14.2-20.9,18.4l-22.1,15.6l-1.9-0.5l1.9-4
	c12.6-11.6,29.1-20.5,34.2-37L441.3,441.4L441.3,441.4z M94.4,575.7c10.9,11.4,26.1,16.1,40.5,20.3c9.1,0.9,17.5-0.5,25.4-3.3
	l14.2-11.6c28.4-11.4,58-18.9,88.7-27.2c32.8-3.5,61.2-11.4,88.9-24.4l41.9-10.5c-2.1,12.8-16.1,17-25.4,23.5v2.8l5.1,1.4
	c-9.5,2.3-19.3,5.8-29.6,3.7l-13.3,10l-74.5,18.9l-1.9-1.4l-16.8,12.1l-26.5-2.3l-3.3-3.3c-24.7,9.3-51,16.5-78.4,17.5
	c-8.4-4.4-18.9-4.9-24.2-14.7C101.2,584.8,94.7,581.5,94.4,575.7L94.4,575.7z M79.3,519.4c0.2,18.4,1.9,36.8,9.1,53.1l-5.1,37.7
	l-22.3-3.7l1.2-29.6l6.8-10.5C78.4,552.9,76.3,534.9,79.3,519.4L79.3,519.4z M396.3,539.1h6.1l-9.5,1.9L396.3,539.1L396.3,539.1z
	 M345.6,553.8l9.8,1.4c-4.2,3.7-5.6,8.8-5.6,14.4c1.9,6.1,8.4,6.8,12.6,9.5l60.8,1.4c12.6-0.5,25.4,0.5,35.1,7l-2.3,0.9l-9.8-0.9
	l-48.9-4.2l-7.7,2.3h-7l-17.7-1.4l-32.1-10.5l-2.8,0.5L345.6,553.8L345.6,553.8z M112.4,565.4l1.9-0.5l2.6,1.9l28.4,8.8l6.1,1.2
	l4,1.9C140.5,577.3,124.5,572.4,112.4,565.4L112.4,565.4z M330.9,577.8h3.3l30.5,10.7l33.5-0.9h4.2l3.3,4.7l-0.5,6.1l-22.1,28.4
	l-7.9,1.4l-31.4-0.5l-4,3.7l-14.4-1.4c-15.1-12.8-9.3-36.8,4.2-48.9L330.9,577.8L330.9,577.8z M263.2,581l9.1,7.4l34.2,30l0.5,6.1
	L273.7,595l-2.1-3.7l-10.5-8.8L263.2,581L263.2,581z M253.2,583.4h4.4l0.2,1.9l3,0.9l47,43.8l-4.2,9.8l-11.4-13l-22.8-23l-3-5.8
	l-14.4-13L253.2,583.4L253.2,583.4z M249,586.6l52.4,55.4c-7.7,10.9-14.4,23-11.2,38.2c-10.9,5.1-18.2,19.6-14.7,30.5l7.2-2.8
	l2.8,3.3l-7.2,6.5L266.2,751L248.1,797l-11.9-9.3l-21.2,8.8l-2.1-4.7l-4.9-10.5c11.2-3.7,23.3-16.3,26.8-29.6l4.4,10.9
	c3.3-6.5-1.2-14.2-2.8-20.7l-2.6-11.2l-3.7-11.9l17,17c3,2.8,5.8,11.2,10.9,8.4l1.4-8.8l-29.3-21.6l-6.1-9.3
	c-26.8-19.8-53.8-42.8-75.2-71.5l-36.8-23.5L100,588.5c6.1,7,14.2,12.1,22.8,15.1c6.3,3.3,14.2,2.8,21.4,1.4l2.6,12.1l15.8-0.9
	l21.2-1.4l58.7,63.8l4.7,1.2c3.5-13.3-8.6-24.9-15.6-35.8l-20.9-24.4c-6.3-9.3,5.4-2.3,8.8,0.5l27.2,14.7c2.8-2.3,2.6-7,1.9-10.5
	l-31-20.5l8.1-10.9c8.8,5.1,17.5-2.8,24.2-4.2L249,586.6L249,586.6z M408,588h13.3l-6.3,26.3l-27.7,23c-5.6-3.3-13-4.7-19.1-1.9
	l-24-3.7l41.2-2.3c9.1-10,17.5-21.2,23.5-33.1L408,588L408,588z M242.9,672.5l-57.7-61.4l-35.8,2.8l-2.3-9.3l59.6-14.7l14.7,1.9
	l-7.7,13.3c9.8,7.4,18.9,16.8,30.7,19.6l0.9,4.9l-32.8-19.3h-6.3l-2.3,4.7l3.7,7.9C222,636.9,236.4,653,242.9,672.5L242.9,672.5z
	 M314.4,601.7c-3.7,5.6-7,12.6-3.7,19.1v3.7l1.4,0.9v5.8l8.1-2.3l-0.5-1.9l-4.2-6.8C311.1,616.2,314.4,606.9,314.4,601.7
	L314.4,601.7z M320.2,632.2l-10.9,3.7c-7.4,12.6-19.6,24-16.1,41.2l34.9,2.3l8.8,4c8.6-3.3,14.2-9.5,18.4-17.9l12.8-18.9l0.5-7.4
	L320.2,632.2L320.2,632.2z M371.9,637.8l11.6,0.9v17l-31,31l-4.7-0.9l-5.6,6.1l-6.8-4.7c15.6-4.7,23-21.6,33.1-33.8l2.8-6.8
	L371.9,637.8L371.9,637.8z M85.4,664.8l-8.4,5.4l-1.4,19.3l17-2.3l14.7-8.1l-7-14l-6.8-1.4L85.4,664.8L85.4,664.8z M159.2,680.9
	l1.2,1.2l2.8,15.4l-1.4,17l-4,2.8l-2.3-1.9l-1.4-6.5l-1.6-27.7l-4.9-5.4l-4.2,6.8l2.8,1.4c-1.2,10.7,3,24-3.7,32.4l-10.2-36.5h-2.6
	c-1.9,9.8-13.7,2.3-18.4-1.2c-7.9,9.5-20.7,13.7-33.3,14.7c-3,40.5-30.5,74.3-23.5,117.1l6.3,0.9l61.9-1.4l5.1-7.2l-10.2-7
	l-14.4-16.1c-11.6-2.8-17.7,5.8-26.5,10.9l-7.7-1.4c4-12.3,20-14.7,31.9-14.2l10-14l7.7-24.4l0.9,22.6h7.2l3-15.1l7.7,14.7
	c4.2-3.3,15.1-4.2,12.8-10.9l2.6-1.9c5.1,10.5,16.5,13.7,28.6,14.7l11.2-10.5l4.4-0.5l14.4,26.8l3.3-3.7
	c25.1-13.5,17.7-46.1,5.4-66.6l-11.9-7.2l-7.2-7.4l-3,1.4l-10.2,4.2l4.2,9.5l-2.8,2.3C181,699.3,175.7,667.4,159.2,680.9
	L159.2,680.9z M293.2,679.7l-13.7,21.4l-1.6,5.4c18.2-10.9,28.6,15.4,47.5,12.1l21.2-18.9l-0.9-2.8l-5.1,0.5l-11.4-14L293.2,679.7
	L293.2,679.7z M158.2,682.1h-1.4l1.4,27.2l0.7,1.4l0.9-15.8l-0.7-7L158.2,682.1L158.2,682.1z M141.5,684.4v1.4
	c-2.8,4.7-0.9,11.6,0.5,16.3l0.2,6.5l2.6-3.3l-0.7-18.6L141.5,684.4L141.5,684.4z M348.4,703l5.6,10.9l-15.1,7.4
	c-5.1,5.1-13,5.1-19.1,0.5l7.4-0.5L348.4,703L348.4,703z M369.6,729.5l-0.5-2.3l-3.5-3l-8.4-5.6l-28.6,10.9L287.9,707l0.5,6.5
	l-6.1,3.3l-17.7,49.8l6.1,7.4l5.1,7.4l-2.1-7.7l-4.9-9.5c4.4-15.1,14.4-29.1,22.6-43.3l5.4-3.7l1.6,23.3c1.9-3.3,4-6.8,8.1-3
	l11.4-9.1c7,6.8,8.4,17,10.2,26.1l-13.7,16.3l-0.9,5.6l45.6-52.1L369.6,729.5L369.6,729.5z M207.1,733.3c6.3-1.4-1.2-7.2-3.7-10
	l-7.4-8.8l-1.6-0.5l-1.2,1.4l3,16.1l10.9,13l2.8-2.3L207.1,733.3C206.2,733.3,207.1,732.3,207.1,733.3L207.1,733.3z M202.9,734.2
	l-0.5-6.8l-4.9-5.1C198,727,199,731.4,202.9,734.2L202.9,734.2z M455.5,796.6c3.7-0.5,6.5-1.9,5.1-6.5l-7-7.7l-10.5-7l-29.6-12.1
	l0.9-7l-6.1-0.9c-12.1,6.1-19.3-6.8-26.3-15.1l-24.4-10.9L312.5,781c-5.1,1.4-3.3-5.6-2.3-8.4l13.7-17.7l-6.5-22.1l-15.1,7.9
	l-6.8,7.4v-25.4c-7.7,16.1-31.9,35.4-17,54l5.1,11.4l6.8,14l71.9-2.8l3.5,4.2c14,0,28.6,0.9,39.8-5.1l3.7,0.9
	c3.3,9.5,15.6-1.4,22.1-2.3l19.3,0.9c3.7-10.7-7.7-16.1-16.1-17l-22.1-10.7L394,780.5c3.3-8.8,17.2-20.5,24.9-9.8l5.6,2.8
	C436.1,777.3,456.9,779.1,455.5,796.6L455.5,796.6z M65.8,728.8c-5.4,24.9-22.1,48.4-15.1,76.1l-0.2,3.3l-12.8-21.9V781L65.8,728.8
	L65.8,728.8z M249.5,733.3l5.1,7h0.7C256.7,736.1,252.5,733.7,249.5,733.3L249.5,733.3z M263,770.3l-3.3,1.9l-5.6,30.5l31,0.9
	l1.4-0.9l-2.8-5.6L263,770.3L263,770.3z M82.3,778.9l7-1.6l-5.6,4.2l-9.5,4.9l1.6-2.8L82.3,778.9z"/>
</svg>
